<svg xmlns="http://www.w3.org/2000/svg" viewBox="0 0 48 48" role="img" aria-label="抖音电商">
  <rect width="48" height="48" rx="12" fill="#12141a"/>
  <path d="M28 11c1.2 5 4.1 8 9 9v7c-3.4-.2-6.4-1.3-9-3.3v8.5c0 7-5.3 11.8-11.5 10.5A10.4 10.4 0 0 1 19 22.2v6.7a4.3 4.3 0 1 0 3 4.1V11h6Z" fill="#25f4ee" transform="translate(-1 1)"/>
  <path d="M29 10c1.2 5 4.1 8 9 9v6.2c-3.5-.2-6.5-1.4-9-3.4v9.4c0 6.4-4.7 11-10.6 10.8a10.4 10.4 0 0 1 1.6-20.7V28a4.3 4.3 0 1 0 3 4.1V10h6Z" fill="#fe2c55" opacity=".9"/>
  <path d="M27 10c1.2 5 4.1 8 9 9v4.2c-3.5-.3-6.5-1.8-9-4v12a8.3 8.3 0 1 1-8.3-8.3V27a4.3 4.3 0 1 0 4.3 4.3V10h4Z" fill="#fff"/>
</svg>
